<svg width="401" height="140" viewBox="0 0 401 140" fill="none" xmlns="http://www.w3.org/2000/svg">
<path d="M331.667 0.355484C315.178 0.355484 300.014 6.11319 288.089 15.857C276.165 6.11319 261.001 0.355484 244.512 0.355484C228.023 0.355484 212.86 6.11319 200.935 15.857C189.01 6.11319 173.846 0.355484 157.357 0.355484C140.721 0.355484 125.558 6.11319 113.633 15.857C101.855 6.11319 86.5439 0.355484 70.0552 0.355484C31.925 0.355484 0.861328 31.3585 0.861328 69.7432C0.861328 108.128 31.925 139.131 70.0552 139.131C86.5439 139.131 101.708 133.373 113.633 123.629C125.558 133.373 140.721 139.131 157.357 139.131C173.846 139.131 189.01 133.373 200.935 123.629C212.86 133.373 228.023 139.131 244.512 139.131C261.001 139.131 276.165 133.373 288.089 123.629C300.014 133.373 315.178 139.131 331.667 139.131C369.944 139.131 400.861 107.98 400.861 69.7432C401.008 31.3585 369.944 0.355484 331.667 0.355484ZM288.089 100.894C281.759 92.0359 278.078 81.4063 278.078 69.7432C278.078 58.0802 281.759 47.3029 288.089 38.5926C294.42 47.4506 298.101 58.0802 298.101 69.7432C298.101 81.4063 294.42 92.1835 288.089 100.894ZM200.935 100.894C194.604 92.0359 190.924 81.4063 190.924 69.7432C190.924 58.0802 194.604 47.3029 200.935 38.5926C207.265 47.4506 210.946 58.0802 210.946 69.7432C210.798 81.4063 207.118 92.1835 200.935 100.894ZM113.633 100.894C107.302 92.0359 103.622 81.4063 103.622 69.7432C103.622 58.0802 107.302 47.3029 113.633 38.5926C119.963 47.4506 123.644 58.0802 123.644 69.7432C123.644 81.4063 119.963 92.1835 113.633 100.894ZM16.4668 69.7432C16.4668 40.0689 40.4638 16.0046 70.0552 16.0046C82.2745 16.0046 93.6106 20.1384 102.591 27.0772C93.4633 38.8878 88.0162 53.6512 88.0162 69.7432C88.0162 85.8353 93.4633 100.599 102.591 112.409C93.6106 119.348 82.4218 123.482 70.0552 123.482C40.4638 123.482 16.4668 99.4176 16.4668 69.7432ZM124.674 112.409C133.802 100.599 139.249 85.8353 139.249 69.7432C139.249 53.6512 133.802 38.8878 124.674 27.0772C133.655 20.1384 144.991 16.0046 157.21 16.0046C169.429 16.0046 180.765 20.1384 189.893 27.0772C180.765 38.8878 175.318 53.6512 175.318 69.7432C175.318 85.8353 180.765 100.599 189.893 112.409C180.913 119.348 169.577 123.482 157.21 123.482C144.991 123.482 133.655 119.348 124.674 112.409ZM211.976 112.409C221.104 100.599 226.551 85.8353 226.551 69.7432C226.551 53.6512 221.104 38.8878 211.976 27.0772C220.957 20.1384 232.293 16.0046 244.512 16.0046C256.731 16.0046 268.067 20.1384 277.048 27.0772C267.92 38.8878 262.473 53.6512 262.473 69.7432C262.473 85.8353 267.92 100.599 277.048 112.409C268.067 119.348 256.731 123.482 244.512 123.482C232.293 123.482 220.957 119.348 211.976 112.409ZM331.667 123.482C319.448 123.482 308.112 119.348 298.984 112.409C308.112 100.599 313.559 85.8353 313.559 69.7432C313.559 53.6512 308.112 38.8878 298.984 27.0772C307.964 20.1384 319.3 16.0046 331.667 16.0046C361.258 16.0046 385.255 40.0689 385.255 69.7432C385.255 99.4176 361.258 123.482 331.667 123.482Z" fill="#E5E5E5" fill-opacity="0.55"/>
</svg>
